<?xml version="1.0" standalone="no"?>
<!DOCTYPE svg PUBLIC "-//W3C//DTD SVG 20010904//EN"
 "http://www.w3.org/TR/2001/REC-SVG-20010904/DTD/svg10.dtd">
<svg version="1.0" xmlns="http://www.w3.org/2000/svg"
 width="354.000000pt" height="354.000000pt" viewBox="0 0 354.000000 354.000000"
 preserveAspectRatio="xMidYMid meet">
<metadata>
Created by potrace 1.14, written by Peter Selinger 2001-2017
</metadata>
<g transform="translate(0.000000,354.000000) scale(0.100000,-0.100000)"
fill="#000000" stroke="none">
<path d="M1656 2879 c-55 -9 -69 -19 -64 -45 3 -15 11 -18 38 -16 118 9 250 5
310 -11 141 -38 275 -122 368 -231 49 -57 130 -215 139 -270 6 -41 23 -59 46
-50 26 10 26 27 -2 109 -89 265 -289 442 -576 510 -45 11 -203 13 -259 4z"/>
<path d="M2421 2826 c-9 -11 -2 -25 34 -67 173 -202 245 -397 240 -649 -1 -89
-8 -149 -24 -210 -30 -118 -107 -270 -186 -365 -36 -43 -65 -82 -65 -86 0 -5
9 -13 21 -19 18 -10 26 -6 65 37 108 116 194 283 230 444 3 13 8 38 12 54 3
17 6 95 6 175 0 152 -14 228 -66 360 -42 106 -136 251 -207 316 -30 27 -44 30
-60 10z"/>
<path d="M1027 2778 c-249 -293 -310 -687 -161 -1040 38 -91 125 -225 184
-285 35 -35 46 -41 61 -32 28 14 24 25 -29 88 -119 138 -187 278 -223 456 -19
93 -15 261 7 364 10 47 56 175 79 221 27 52 111 172 150 213 30 32 30 61 -1
65 -16 2 -34 -12 -67 -50z"/>
<path d="M1656 2604 c-175 -46 -311 -181 -355 -354 -61 -243 65 -488 300 -580
75 -30 205 -37 286 -16 232 59 382 260 370 496 -6 123 -46 220 -132 318 -31
36 -129 98 -193 122 -69 27 -204 33 -276 14z m254 -69 c103 -36 202 -125 247
-222 32 -70 35 -85 39 -178 7 -191 -109 -352 -296 -415 -185 -60 -395 20 -493
188 -101 174 -76 382 64 522 114 114 293 157 439 105z"/>
<path d="M1790 2468 c0 -2 9 -21 20 -43 24 -48 26 -105 4 -148 -21 -39 -32
-50 -71 -71 -90 -46 -194 8 -228 119 l-6 20 -16 -20 c-34 -44 -56 -111 -59
-178 -6 -141 67 -263 196 -329 38 -19 61 -23 140 -23 85 0 101 3 153 30 158
80 229 263 166 430 -38 103 -149 194 -256 211 -24 4 -43 5 -43 2z m44 -370
c17 -50 -42 -89 -78 -52 -19 19 -21 55 -4 72 7 7 26 12 43 10 22 -2 32 -10 39
-30z"/>
<path d="M1036 1982 c-8 -23 22 -120 59 -193 93 -184 245 -314 450 -385 73
-26 93 -28 225 -29 155 0 195 9 183 43 -10 25 -22 31 -52 22 -43 -12 -192 -12
-251 0 -153 32 -259 89 -365 195 -93 93 -136 162 -175 277 -21 65 -31 84 -48
86 -13 2 -22 -4 -26 -16z"/>
<path d="M205 1120 c-52 -4 -60 -8 -60 -25 0 -18 8 -20 78 -23 l77 -3 0 -110
c0 -103 -1 -111 -25 -134 -32 -33 -51 -31 -89 9 -54 58 -79 18 -27 -44 26 -31
34 -35 76 -34 38 1 52 7 78 32 l31 32 1 125 c0 129 1 131 42 126 7 -1 17 8 23
19 9 16 8 22 -5 26 -21 8 -125 10 -200 4z"/>
<path d="M1083 1123 c-8 -3 -13 -21 -13 -43 0 -36 -2 -39 -27 -37 -19 1 -28
-3 -28 -13 0 -9 9 -15 25 -15 25 0 25 0 30 -113 5 -123 11 -134 64 -130 40 4
47 28 8 28 -16 0 -32 6 -35 13 -3 7 -4 55 -3 107 l1 95 33 -1 c29 -1 36 5 30
23 -2 4 -16 7 -33 7 -28 1 -30 4 -31 38 0 41 -3 47 -21 41z"/>
<path d="M1595 1118 c-2 -7 -5 -26 -7 -43 -3 -26 -7 -30 -30 -28 -21 1 -28 -3
-28 -16 0 -14 7 -18 28 -17 l27 1 1 -109 c1 -95 4 -111 20 -123 21 -15 79 -14
79 2 0 5 -13 12 -30 15 l-30 5 0 105 0 105 33 -2 c22 -1 32 3 32 13 0 14 -6
16 -47 17 -20 0 -23 5 -23 43 0 41 -15 60 -25 32z"/>
<path d="M3038 1122 c-14 -2 -29 -10 -32 -17 -6 -16 25 -37 46 -33 10 2 13
-26 13 -124 l0 -128 -28 0 c-24 0 -28 -4 -25 -22 3 -21 8 -23 75 -24 74 -1 99
9 84 35 -5 8 -19 14 -32 15 -24 1 -24 2 -24 119 0 96 3 120 15 127 8 4 20 7
25 7 6 -1 11 8 13 21 2 16 -2 22 -15 23 -10 0 -34 1 -53 2 -19 1 -47 1 -62 -1z"/>
<path d="M3294 1118 c-4 -7 -8 -26 -8 -43 -1 -25 -5 -30 -26 -30 -15 0 -26 -6
-28 -17 -3 -13 3 -17 25 -15 l28 2 1 -109 c2 -121 9 -136 66 -136 37 0 38 28
1 32 l-28 3 -3 106 -3 106 36 -2 c29 -2 35 0 33 14 -2 11 -13 15 -36 14 -32
-2 -32 -1 -32 43 0 43 -11 56 -26 32z"/>
<path d="M1311 1104 c-36 -15 -71 -60 -71 -91 0 -38 51 -79 106 -88 80 -12
118 -76 61 -106 -28 -16 -91 -5 -123 20 -25 20 -29 20 -43 6 -15 -15 -13 -19
17 -45 77 -64 199 -46 220 33 18 67 -16 110 -110 138 -38 11 -72 27 -75 35
-14 37 69 74 120 55 29 -11 47 -3 47 19 0 35 -89 49 -149 24z"/>
<path d="M663 1043 c-9 -3 -13 -33 -13 -101 -1 -101 -7 -119 -48 -141 -30 -16
-79 -5 -93 20 -5 11 -10 64 -11 119 -1 87 -4 100 -19 100 -15 0 -17 -11 -14
-108 2 -113 12 -143 50 -160 11 -5 32 -8 45 -7 14 1 31 3 38 4 6 0 21 10 32
21 l20 20 0 -20 c0 -13 7 -20 18 -20 16 0 18 12 17 134 0 74 -2 136 -5 139 -3
2 -11 2 -17 0z"/>
<path d="M783 1026 c-23 -20 -30 -33 -28 -53 3 -34 31 -53 104 -74 94 -26 109
-89 25 -105 -45 -8 -91 11 -98 42 -7 28 -36 33 -36 6 0 -45 66 -88 121 -78 13
3 32 5 42 5 29 2 57 38 57 75 0 42 -22 60 -100 83 -64 18 -80 29 -80 54 0 37
76 53 118 23 12 -8 22 -21 22 -28 0 -7 7 -13 15 -13 21 0 19 30 -3 57 -14 18
-32 24 -73 28 -48 4 -59 1 -86 -22z"/>
<path d="M1757 1043 c-4 -3 -7 -67 -7 -140 0 -122 2 -134 17 -131 15 3 18 15
19 78 1 41 2 84 3 96 2 34 36 66 73 67 58 3 61 37 4 37 -23 0 -42 -9 -60 -27
-15 -14 -24 -20 -21 -11 6 16 -17 42 -28 31z"/>
<path d="M1998 1032 c-69 -42 -82 -168 -25 -230 29 -31 89 -46 132 -32 36 12
75 52 75 76 0 23 -26 16 -40 -10 -17 -32 -60 -50 -100 -41 -32 7 -54 33 -65
76 l-6 26 110 -1 c109 -1 111 -1 111 22 0 36 -25 87 -55 110 -34 27 -98 29
-137 4z m127 -37 c14 -13 25 -35 25 -48 0 -23 -2 -23 -85 -22 -46 0 -87 4 -90
7 -9 9 22 65 42 77 33 19 82 13 108 -14z"/>
<path d="M2302 1037 c-34 -19 -58 -57 -42 -67 8 -5 22 2 37 21 20 24 33 29 67
29 47 0 70 -18 78 -61 5 -26 4 -27 -68 -31 -85 -6 -119 -24 -129 -69 -15 -67
45 -110 123 -89 22 5 45 17 52 25 13 16 31 20 29 8 -3 -20 2 -33 14 -33 10 0
13 24 11 103 -2 133 0 124 -30 152 -30 28 -102 34 -142 12z m142 -143 c7 -19
-26 -75 -55 -90 -15 -7 -39 -14 -54 -14 -30 0 -69 36 -61 57 3 8 6 18 6 23 0
26 154 50 164 24z"/>
<path d="M2569 1041 c-13 -5 -15 -27 -15 -136 1 -115 3 -130 19 -133 15 -3 17
7 17 100 0 91 3 107 20 126 24 26 72 29 94 6 19 -18 18 -13 20 -134 2 -81 4
-95 19 -98 15 -3 17 8 17 100 0 91 3 107 20 126 24 26 72 29 94 6 17 -17 18
-21 21 -134 3 -101 3 -100 20 -100 12 0 15 18 15 99 0 118 -11 155 -50 171
-38 16 -97 5 -112 -20 -11 -18 -13 -18 -41 6 -35 30 -85 32 -114 4 -21 -19
-22 -19 -25 -1 -2 12 -8 16 -19 12z"/>
</g>
</svg>
